<?xml version="1.0" encoding="UTF-8" standalone="no" ?>
<!DOCTYPE svg PUBLIC "-//W3C//DTD SVG 1.1//EN" "http://www.w3.org/Graphics/SVG/1.1/DTD/svg11.dtd">
<svg xmlns="http://www.w3.org/2000/svg" xmlns:xlink="http://www.w3.org/1999/xlink" version="1.1" width="1080" height="1080" viewBox="0 0 1080 1080" xml:space="preserve">
<desc>Created with Fabric.js 5.2.4</desc>
<defs>
</defs>
<g transform="matrix(1 0 0 1 540 540)" id="b7809e33-f9a9-4dc3-9543-23063325063a"  >
<rect style="stroke: none; stroke-width: 1; stroke-dasharray: none; stroke-linecap: butt; stroke-dashoffset: 0; stroke-linejoin: miter; stroke-miterlimit: 4; fill: rgb(255,255,255); fill-rule: nonzero; opacity: 1; visibility: hidden;" vector-effect="non-scaling-stroke"  x="-540" y="-540" rx="0" ry="0" width="1080" height="1080" />
</g>
<g transform="matrix(1 0 0 1 540 540)" id="fb628411-d691-4793-a516-69f62298ef77"  >
</g>
<g transform="matrix(5.4 0 0 5.4 540 540)"  >
<linearGradient id="SVGID_shapeGradient_3" gradientUnits="objectBoundingBox" gradientTransform="matrix(1 0 0 1 0 0)"  x1="0" y1="0" x2="1" y2="1">
<stop offset="0%" style="stop-color:rgb(200,45,108);stop-opacity: 1"/>
<stop offset="100%" style="stop-color:rgb(129,39,101);stop-opacity: 1"/>
</linearGradient>
<path style="stroke: none; stroke-width: 1; stroke-dasharray: none; stroke-linecap: butt; stroke-dashoffset: 0; stroke-linejoin: miter; stroke-miterlimit: 4; fill: url(#SVGID_shapeGradient_3); fill-rule: nonzero; opacity: 1;"  transform=" translate(-8.99, -2.44)" d="M 34.5 -56 C 48.7 -51.5 67 -50.4 77.7 -41.6 C 88.4 -32.8 91.6 -16.4 90.8 -0.4 C 90.1 15.6 85.6 31.2 73.4 37.5 C 61.3 43.7 41.5 40.7 28 40.7 C 14.5 40.7 7.3 43.6 -4.5 51.3 C -16.2 59.1 -32.3 71.5 -46.7 72 C -61.1 72.6 -73.7 61.2 -72.9 47.2 C -72.1 33.2 -57.9 16.6 -54.6 1.9 C -51.3 -12.8 -58.8 -25.5 -55.5 -32.5 C -52.2 -39.5 -38.2 -40.7 -27.2 -47.1 C -16.1 -53.5 -8.1 -65.1 1 -66.9 C 10.1 -68.6 20.2 -60.6 34.5 -56 Z" stroke-linecap="round" />
</g>
</svg>